<svg width="190" height="24" viewBox="0 0 190 24" fill="none" xmlns="http://www.w3.org/2000/svg">
<path d="M12.398 3.89C11.198 3.89 10.138 4.12 9.21797 4.58C8.29797 5.02 7.51797 5.62 6.87797 6.38C6.25797 7.12 5.78797 7.99 5.46797 8.99C5.14797 9.99 4.98797 11.03 4.98797 12.11C4.98797 13.15 5.14797 14.16 5.46797 15.14C5.78797 16.12 6.24797 16.99 6.84797 17.75C7.46797 18.51 8.22797 19.12 9.12797 19.58C10.048 20.04 11.108 20.27 12.308 20.27C12.748 20.27 13.178 20.26 13.598 20.24C14.018 20.2 14.548 20.1 15.188 19.94V12.89H19.028V21.89C18.488 22.13 17.908 22.35 17.288 22.55C16.688 22.73 16.088 22.88 15.488 23C14.888 23.12 14.308 23.21 13.748 23.27C13.208 23.33 12.728 23.36 12.308 23.36C10.448 23.36 8.77797 23.07 7.29797 22.49C5.83797 21.91 4.59797 21.11 3.57797 20.09C2.55797 19.07 1.77797 17.88 1.23797 16.52C0.697969 15.14 0.427969 13.67 0.427969 12.11C0.427969 10.53 0.707969 9.06 1.26797 7.7C1.82797 6.32 2.62797 5.12 3.66797 4.1C4.70797 3.08 5.95797 2.28 7.41797 1.7C8.89797 1.1 10.558 0.8 12.398 0.8C13.238 0.8 14.218 0.9 15.338 1.1C16.458 1.3 17.588 1.64 18.728 2.12L17.618 5C16.478 4.56 15.498 4.27 14.678 4.13C13.858 3.97 13.098 3.89 12.398 3.89ZM33.027 3.83C31.987 3.83 31.077 4.05 30.297 4.49C29.517 4.93 28.857 5.53 28.317 6.29C27.797 7.05 27.397 7.93 27.117 8.93C26.857 9.93 26.727 10.98 26.727 12.08C26.727 13.12 26.857 14.14 27.117 15.14C27.397 16.12 27.797 17 28.317 17.78C28.857 18.54 29.517 19.16 30.297 19.64C31.077 20.1 31.987 20.33 33.027 20.33C33.847 20.33 34.637 20.15 35.397 19.79C36.157 19.41 36.827 18.87 37.407 18.17C37.987 17.47 38.447 16.61 38.787 15.59C39.147 14.57 39.327 13.4 39.327 12.08C39.327 10.9 39.177 9.81 38.877 8.81C38.597 7.79 38.187 6.92 37.647 6.2C37.107 5.46 36.447 4.88 35.667 4.46C34.887 4.04 34.007 3.83 33.027 3.83ZM33.027 23.42C31.287 23.42 29.747 23.13 28.407 22.55C27.067 21.97 25.927 21.18 24.987 20.18C24.067 19.16 23.367 17.96 22.887 16.58C22.407 15.2 22.167 13.7 22.167 12.08C22.167 10.52 22.407 9.05 22.887 7.67C23.387 6.29 24.097 5.09 25.017 4.07C25.957 3.03 27.097 2.22 28.437 1.64C29.777 1.04 31.307 0.739999 33.027 0.739999C34.987 0.739999 36.647 1.08 38.007 1.76C39.387 2.44 40.507 3.33 41.367 4.43C42.247 5.51 42.877 6.73 43.257 8.09C43.657 9.43 43.857 10.76 43.857 12.08C43.857 13.56 43.617 14.98 43.137 16.34C42.657 17.7 41.957 18.91 41.037 19.97C40.137 21.01 39.007 21.85 37.647 22.49C36.307 23.11 34.767 23.42 33.027 23.42ZM51.2688 18.23L49.6788 23H45.4488L53.2788 1.19H57.4788L65.3088 23H60.8688L55.4688 6.77L55.2288 5.66L54.9588 6.83L52.4088 14.6L52.0488 15.2L52.4988 15.14H54.7788C55.2188 15.14 55.5988 15.24 55.9188 15.44C56.2388 15.64 56.5188 15.89 56.7588 16.19C56.9988 16.49 57.1988 16.83 57.3588 17.21C57.5388 17.57 57.6788 17.91 57.7788 18.23H51.2688ZM68.6592 1.19H72.9792V19.88H80.8392V23H68.6592V1.19Z" fill="white"/>
<path d="M91.0467 10.55C91.7867 10.55 92.4467 10.45 93.0267 10.25C93.6067 10.05 94.0867 9.77 94.4667 9.41C94.8667 9.05 95.1667 8.63 95.3667 8.15C95.5667 7.67 95.6667 7.15 95.6667 6.59C95.6667 5.57 95.2767 4.72 94.4967 4.04C93.7167 3.36 92.5667 3.02 91.0467 3.02C90.5067 3.02 89.9267 3.04 89.3067 3.08C88.7067 3.1 88.1367 3.14 87.5967 3.2V10.55H91.0467ZM91.6467 21.08C91.8867 21.12 92.0967 21.15 92.2767 21.17C92.4767 21.17 92.7167 21.17 92.9967 21.17C93.5167 21.17 94.0067 21.06 94.4667 20.84C94.9467 20.62 95.3667 20.32 95.7267 19.94C96.0867 19.56 96.3667 19.12 96.5667 18.62C96.7867 18.1 96.8967 17.55 96.8967 16.97C96.8967 16.23 96.7367 15.59 96.4167 15.05C96.1167 14.49 95.7067 14.03 95.1867 13.67C94.6667 13.31 94.0467 13.05 93.3267 12.89C92.6067 12.71 91.8467 12.62 91.0467 12.62H87.5967V23H84.7467V1.46C85.8867 1.24 86.9467 1.08 87.9267 0.979999C88.9267 0.86 89.9667 0.8 91.0467 0.8C92.3267 0.8 93.4367 0.95 94.3767 1.25C95.3367 1.55 96.1267 1.96 96.7467 2.48C97.3867 3 97.8567 3.62 98.1567 4.34C98.4767 5.04 98.6367 5.79 98.6367 6.59C98.6367 6.95 98.5867 7.34 98.4867 7.76C98.3867 8.16 98.2367 8.56 98.0367 8.96C97.8567 9.36 97.6267 9.73 97.3467 10.07C97.0667 10.41 96.7467 10.7 96.3867 10.94L95.5167 11.36L96.3567 11.57C97.4967 12.11 98.3767 12.83 98.9967 13.73C99.6167 14.61 99.9267 15.65 99.9267 16.85C99.9267 17.63 99.7667 18.41 99.4467 19.19C99.1467 19.95 98.6967 20.64 98.0967 21.26C97.4967 21.88 96.7667 22.39 95.9067 22.79C95.0467 23.17 94.0767 23.36 92.9967 23.36C92.4167 23.36 91.7967 23.32 91.1367 23.24C90.4767 23.18 89.6967 23.04 88.7967 22.82C89.0967 22.3 89.4767 21.85 89.9367 21.47C90.3967 21.09 90.9667 20.96 91.6467 21.08ZM102.764 12.08C102.764 10.16 103.064 8.49 103.664 7.07C104.284 5.65 105.084 4.47 106.064 3.53C107.044 2.59 108.124 1.89 109.304 1.43C110.504 0.969999 111.694 0.739999 112.874 0.739999C114.494 0.739999 115.934 1.04 117.194 1.64C118.454 2.24 119.514 3.06 120.374 4.1C121.234 5.12 121.884 6.32 122.324 7.7C122.764 9.08 122.984 10.54 122.984 12.08C122.984 13.82 122.714 15.39 122.174 16.79C121.634 18.17 120.894 19.36 119.954 20.36C119.034 21.34 117.964 22.1 116.744 22.64C115.524 23.16 114.234 23.42 112.874 23.42C111.474 23.42 110.154 23.16 108.914 22.64C107.694 22.12 106.624 21.38 105.704 20.42C104.804 19.44 104.084 18.25 103.544 16.85C103.024 15.45 102.764 13.86 102.764 12.08ZM105.824 12.08C105.824 13.44 105.994 14.68 106.334 15.8C106.694 16.92 107.184 17.89 107.804 18.71C108.444 19.51 109.194 20.14 110.054 20.6C110.914 21.04 111.854 21.26 112.874 21.26C113.934 21.26 114.894 21.02 115.754 20.54C116.634 20.06 117.374 19.41 117.974 18.59C118.594 17.77 119.074 16.8 119.414 15.68C119.754 14.56 119.924 13.36 119.924 12.08C119.924 10.68 119.734 9.42 119.354 8.3C118.994 7.16 118.494 6.19 117.854 5.39C117.214 4.59 116.464 3.98 115.604 3.56C114.744 3.14 113.834 2.93 112.874 2.93C111.914 2.93 111.004 3.14 110.144 3.56C109.284 3.98 108.534 4.59 107.894 5.39C107.254 6.19 106.744 7.16 106.364 8.3C106.004 9.42 105.824 10.68 105.824 12.08ZM135.555 23.42C134.275 23.42 133.135 23.22 132.135 22.82C131.135 22.4 130.285 21.82 129.585 21.08C128.905 20.34 128.385 19.45 128.025 18.41C127.665 17.37 127.485 16.22 127.485 14.96V1.19H130.305V15.44C130.305 17.22 130.775 18.64 131.715 19.7C132.675 20.74 133.955 21.26 135.555 21.26C137.155 21.26 138.425 20.74 139.365 19.7C140.325 18.64 140.805 17.22 140.805 15.44V1.19H143.625V14.96C143.625 16.22 143.425 17.37 143.025 18.41C142.645 19.45 142.095 20.34 141.375 21.08C140.675 21.82 139.825 22.4 138.825 22.82C137.845 23.22 136.755 23.42 135.555 23.42ZM151.885 5.57L151.465 4.55L151.525 5.57V23H149.095V1.19H151.945L162.535 18.11L162.895 19.1L162.835 18.05V1.19H165.355V23H162.805L151.885 5.57ZM179.365 23.36C178.685 23.36 178.035 23.33 177.415 23.27C176.795 23.21 176.045 23.07 175.165 22.85C175.445 22.33 175.815 21.9 176.275 21.56C176.735 21.22 177.305 21.08 177.985 21.14C178.305 21.18 178.545 21.2 178.705 21.2C178.885 21.2 179.095 21.2 179.335 21.2C180.295 21.2 181.185 20.96 182.005 20.48C182.845 20 183.575 19.35 184.195 18.53C184.815 17.69 185.295 16.72 185.635 15.62C185.995 14.5 186.175 13.31 186.175 12.05C186.175 9.15 185.435 6.92 183.955 5.36C182.495 3.78 180.285 2.99 177.325 2.99C176.725 2.99 176.135 3.01 175.555 3.05C174.975 3.09 174.445 3.14 173.965 3.2V23H171.115V1.52C172.075 1.3 173.125 1.13 174.265 1.01C175.425 0.869999 176.445 0.8 177.325 0.8C179.225 0.8 180.915 1.06 182.395 1.58C183.875 2.08 185.115 2.82 186.115 3.8C187.135 4.76 187.905 5.94 188.425 7.34C188.965 8.72 189.235 10.29 189.235 12.05C189.235 13.69 188.965 15.2 188.425 16.58C187.905 17.96 187.195 19.16 186.295 20.18C185.395 21.18 184.345 21.96 183.145 22.52C181.965 23.08 180.705 23.36 179.365 23.36Z" fill="white" fill-opacity="0.75"/>
</svg>
